<?xml version="1.0" standalone="no"?>
<!DOCTYPE svg PUBLIC "-//W3C//DTD SVG 20010904//EN"
 "http://www.w3.org/TR/2001/REC-SVG-20010904/DTD/svg10.dtd">
<svg version="1.0" xmlns="http://www.w3.org/2000/svg"
 width="240.000000pt" height="228.000000pt" viewBox="0 0 240.000000 228.000000"
 preserveAspectRatio="xMidYMid meet">

<g transform="translate(0.000000,228.000000) scale(0.100000,-0.100000)"
fill="#000000" stroke="none">
<path d="M805 715 c-50 -18 -81 -55 -96 -118 -14 -59 0 -141 32 -181 60 -77
196 -75 262 3 38 45 35 61 -9 61 -26 0 -43 -7 -60 -25 -29 -31 -85 -34 -113
-6 -38 38 -40 146 -4 183 10 9 33 20 50 24 28 5 37 2 62 -25 22 -24 38 -31 65
-31 42 0 45 11 16 58 -23 37 -88 72 -135 71 -16 0 -48 -6 -70 -14z"/>
<path d="M12 583 c3 -117 6 -143 23 -167 54 -81 215 -72 257 14 14 28 18 61
18 163 l0 127 -40 0 -40 0 0 -103 c0 -150 -14 -187 -71 -187 -50 0 -59 24 -59
163 l0 127 -46 0 -46 0 4 -137z"/>
<path d="M380 541 l0 -181 40 2 39 1 3 56 3 56 60 5 c76 6 111 28 126 79 14
47 0 97 -36 131 -22 20 -37 24 -130 28 l-105 5 0 -182z m178 97 c7 -7 12 -27
12 -45 0 -38 -21 -53 -74 -53 l-36 0 0 55 0 55 43 0 c24 0 48 -5 55 -12z"/>
<path d="M1092 543 l3 -178 37 -2 37 -3 3 62 c3 59 5 63 28 66 22 2 31 -6 63
-63 36 -63 39 -65 77 -65 22 0 40 4 40 9 0 5 -16 37 -36 70 l-36 61 31 26 c27
22 31 32 31 74 0 90 -49 120 -198 120 l-82 0 2 -177z m186 95 c17 -17 15 -48
-5 -70 -11 -12 -30 -18 -60 -18 l-43 0 0 50 0 50 48 0 c26 0 53 -5 60 -12z"/>
<path d="M1477 547 c-31 -95 -57 -176 -57 -180 0 -5 19 -7 43 -5 38 3 43 6 53
38 11 35 12 35 76 38 l64 3 10 -38 c8 -36 11 -38 52 -41 27 -2 42 1 42 8 0 7
-26 88 -57 181 l-58 169 -55 0 -55 0 -58 -173z m137 24 c9 -30 16 -56 16 -58
0 -2 -18 -3 -41 -3 -29 0 -40 4 -36 13 2 6 10 36 17 65 8 29 17 49 21 45 4 -5
14 -32 23 -62z"/>
<path d="M1817 548 c1 -95 2 -177 2 -181 1 -5 16 -7 34 -5 l32 3 5 70 5 70 73
3 72 3 0 29 0 29 -72 3 -73 3 -3 37 -3 37 78 3 78 3 3 33 3 32 -118 0 -118 0
2 -172z"/>
<path d="M2100 685 l0 -35 54 0 53 0 -1 -142 c-1 -156 0 -159 60 -144 24 6 24
7 24 146 l0 140 50 0 50 0 0 35 0 35 -145 0 -145 0 0 -35z"/>
<path d="M1244 120 c0 -63 1 -89 3 -57 2 31 2 83 0 115 -2 31 -3 5 -3 -58z"/>
<path d="M971 184 c0 -11 3 -14 6 -6 3 7 2 16 -1 19 -3 4 -6 -2 -5 -13z"/>
<path d="M1318 113 c12 -2 30 -2 40 0 9 3 -1 5 -23 4 -22 0 -30 -2 -17 -4z"/>
</g>
</svg>
