<svg xmlns="http://www.w3.org/2000/svg" viewBox="0 0 24 24" fill="currentColor">
  <path d="M15.337 2.145c-.023 0-.069.023-.092.023-.046.023-1.382.436-1.382.436s-1.06 1.06-1.474 1.474c-.253.252-.598.827-.896 1.474-.46-.138-1.013-.207-1.658-.207-2.024 0-3.084 1.06-3.221 2.073-.046.344-.023.643.046.92-.667.39-1.151.666-1.543.851-.851.437-1.336.667-1.544 1.474-.138.482-3.542 27.309-3.542 27.309L19.77 21.77V5.09s-4.364-.413-4.433-.943zm-1.704 4.227l-.966.299c-.023-.39-.092-.896-.322-1.382.667.115 1.083.62 1.288 1.083zm-1.336-2.395c.207.368.368.92.413 1.52l-1.819.574c.367-.92.896-1.474 1.406-2.094zm-1.474-.506c.138 0 .253.023.368.046-.574.666-1.196 1.496-1.611 2.806l-2.21.689c.436-.92 1.589-3.541 3.453-3.541zm7.132 18.39l-4.433.964s-3.406-2.278-4.593-3.22c-.322-.253-.506-.322-.851-.299-.344.023-2.074.529-2.074.529l-2.256-4.57 6.072-1.957c.322.506.528.965.805 1.336 1.542 2.096 3.358 4.548 7.33 7.217z"/>
</svg>

